<svg xmlns="http://www.w3.org/2000/svg" viewBox="0 0 24 24" width="1em" height="1em">
  <path fill="red" d="M12 2q-2.075 0-3.9.788T4.925 4.925 2.788 8.1 2 12t.788 3.9 2.137 3.175T8.1 21.213 12 22t3.9-.788 3.175-2.137T21.213 15.9 22 12t-.788-3.9-2.137-3.175T15.9 2.788 12 2z"/>
  <path fill="white" d="M12 13.4l2.9 2.9q.275.275.7.275t.7-.275.275-.7-.275-.7L13.4 12l2.9-2.9q.275-.275.275-.7t-.275-.7-.7-.275-.7.275L12 10.6 9.1 7.7q-.275-.275-.7-.275t-.7.275-.275.7.275.7l2.9 2.9-2.9 2.9q-.275.275-.275.7t.275.7.7.275.7-.275z"/>
</svg>
